<svg xmlns="http://www.w3.org/2000/svg">
	<symbol id="leaf" viewBox="0 0 100 100">
		<path d="M 50,0 A 50,50 0 0 0 0,50 50,50 0 0 0 50,100 50,50 0 0 0 100,50 50,50 0 0 0 50,0 Z m 0,26.25 23.75,0 0,23.75 A 23.749846,23.75005 0 0 1 50,73.75 l -23.75,0 0,-23.75 A 23.749846,23.75005 0 0 1 50,26.25 Z m 0,7.30712 A 16.442202,16.442342 0 0 0 33.55714,50 l 0,16.4429 16.44286,0 a 16.442202,16.442342 0 0 0 10.32471,-3.6548 l -23.11279,0 3.65478,-3.6524 22.79541,0 a 16.442202,16.442342 0 0 0 1.81885,-3.6547 l -20.96191,0 3.65479,-3.6548 18.15917,0 A 16.442202,16.442342 0 0 0 66.44287,50 l 0,-1.8262 -14.6167,0 3.65479,-3.65476 10.96191,0 0,-3.65479 -7.30712,0 3.65234,-3.65234 3.65478,0 0,-3.65479 -16.44287,0 z" />
	</symbol>
</svg>